<?xml version="1.0" encoding="iso-8859-1"?>
<!-- Uploaded to: SVG Repo, www.svgrepo.com, Generator: SVG Repo Mixer Tools -->
<!DOCTYPE svg PUBLIC "-//W3C//DTD SVG 1.1//EN" "http://www.w3.org/Graphics/SVG/1.1/DTD/svg11.dtd">
<svg fill="#000000" version="1.1" id="Capa_1" xmlns="http://www.w3.org/2000/svg" xmlns:xlink="http://www.w3.org/1999/xlink" 
	 width="800px" height="800px" viewBox="0 0 35.167 35.167"
	 xml:space="preserve">
<g>
	<path d="M0,20.807v9.543h35.167v-9.543H0z M24.387,24.077H10.78v-1.502h13.607V24.077z M29.751,14.977h-5.565v-1.595h5.565V4.817
		h-17.09v8.565h5.566v1.595H5.415l-5.302,3.531h34.94L29.751,14.977z M20.979,11.869c-1.482,0-2.687-1.203-2.687-2.688
		c0-1.483,1.203-2.688,2.687-2.688c1.484,0,2.688,1.202,2.688,2.688C23.666,10.667,22.462,11.869,20.979,11.869z M21.251,9.031
		l-0.108-0.006v-0.73h0.078c0.271,0,0.405,0.107,0.405,0.325l0.002,0.053h0.478V8.608c0-0.287-0.066-0.485-0.203-0.59
		s-0.389-0.158-0.76-0.158V7.575h-0.332V7.86c-0.39,0-0.652,0.055-0.795,0.164C19.87,8.135,19.8,8.34,19.8,8.639
		c0,0.309,0.07,0.52,0.214,0.633c0.143,0.112,0.407,0.168,0.797,0.168v0.793l-0.074-0.002c-0.197,0-0.326-0.025-0.385-0.08
		c-0.058-0.051-0.086-0.168-0.086-0.348v-0.05h-0.492l-0.002,0.099c0,0.297,0.069,0.504,0.211,0.623
		c0.143,0.118,0.387,0.178,0.735,0.178l0.093,0.002v0.328h0.334v-0.328l0.102-0.002c0.352,0,0.596-0.062,0.734-0.187
		c0.141-0.125,0.209-0.341,0.209-0.651c0-0.285-0.062-0.484-0.191-0.592S21.618,9.051,21.251,9.031z M20.734,9.007
		c-0.291,0-0.438-0.122-0.438-0.364c0-0.23,0.146-0.348,0.438-0.349l0.072-0.001v0.719C20.764,9.008,20.738,9.007,20.734,9.007z
		 M21.212,10.23h-0.069V9.458c0.225-0.001,0.371,0.022,0.44,0.069c0.069,0.05,0.104,0.146,0.104,0.296
		C21.688,10.096,21.529,10.23,21.212,10.23z"/>
</g>
</svg>