<?xml version="1.0" encoding="iso-8859-1"?>
<!-- Uploaded to: SVG Repo, www.svgrepo.com, Generator: SVG Repo Mixer Tools -->
<svg height="800px" width="800px" version="1.1" id="Layer_1" xmlns="http://www.w3.org/2000/svg" xmlns:xlink="http://www.w3.org/1999/xlink" 
	 viewBox="0 0 512 512" xml:space="preserve">
<path style="fill:#5B5D6E;" d="M256,8.294c-73.288,0-132.7,59.412-132.7,132.7v97.313h35.387v-97.313
	c0-53.745,43.569-97.313,97.313-97.313s97.313,43.569,97.313,97.313v97.313H388.7v-97.313C388.7,67.706,329.288,8.294,256,8.294z"/>
<path style="fill:#FF5050;" d="M256,503.706L256,503.706c-87.946,0-159.24-71.294-159.24-159.24v-106.16
	c0-9.772,7.921-17.693,17.693-17.693h283.093c9.772,0,17.693,7.921,17.693,17.693v106.16
	C415.24,432.412,343.946,503.706,256,503.706z"/>
<path style="fill:#C84146;" d="M300.233,486.013c-87.946,0-159.24-71.294-159.24-159.24v-106.16h-26.54
	c-9.771,0-17.693,7.921-17.693,17.693v106.16c0,87.946,71.294,159.24,159.24,159.24c29.396,0,56.838-8.106,80.472-21.995
	C324.814,484.429,312.72,486.013,300.233,486.013z"/>
<circle style="fill:#464655;" cx="256" cy="335.62" r="26.54"/>
<path d="M397.546,212.32h-0.553v-71.326C396.993,63.249,333.744,0,256,0S115.006,63.249,115.006,140.994v71.326h-0.553
	c-14.329,0-25.987,11.658-25.987,25.987v106.16C88.467,436.845,163.621,512,256,512s167.533-75.155,167.533-167.533v-106.16
	C423.533,223.977,411.876,212.32,397.546,212.32z M131.594,140.994c0-68.598,55.808-124.406,124.406-124.406
	s124.406,55.808,124.406,124.406v71.326h-18.799v-71.326c0-58.232-47.375-105.607-105.607-105.607S150.393,82.762,150.393,140.994
	v71.326h-18.799V140.994z M166.981,212.32v-71.326c0-49.086,39.934-89.019,89.019-89.019s89.019,39.934,89.019,89.019v71.326
	H166.981z M406.946,344.467c0,83.232-67.714,150.946-150.946,150.946s-150.946-67.714-150.946-150.946v-106.16
	c0-5.183,4.217-9.4,9.4-9.4h283.093c5.183,0,9.4,4.217,9.4,9.4V344.467z"/>
<path d="M256,300.786c-19.207,0-34.834,15.627-34.834,34.834c0,16.35,11.325,30.096,26.54,33.828v28.098
	c0,4.58,3.713,8.294,8.294,8.294s8.294-3.713,8.294-8.294v-28.098c15.215-3.731,26.54-17.479,26.54-33.828
	C290.834,316.413,275.207,300.786,256,300.786z M256,353.866c-10.061,0-18.246-8.185-18.246-18.246
	c0-10.061,8.185-18.246,18.246-18.246c10.061,0,18.246,8.185,18.246,18.246C274.246,345.681,266.061,353.866,256,353.866z"/>
<path d="M379.853,318.479c-4.58,0-8.294,3.713-8.294,8.294v17.693c0,20.984-5.707,41.545-16.503,59.458
	c-2.364,3.923-1.1,9.02,2.822,11.385c1.339,0.807,2.815,1.192,4.274,1.192c2.811,0,5.553-1.43,7.112-4.013
	c12.353-20.499,18.883-44.02,18.883-68.022v-17.693C388.147,322.193,384.433,318.479,379.853,318.479z"/>
<path d="M206.51,448.884c-32.118-15.288-55.818-45.065-63.398-79.652c-0.981-4.473-5.401-7.308-9.877-6.325
	c-4.474,0.981-7.306,5.403-6.325,9.877c8.67,39.556,35.761,73.603,72.472,91.077c1.151,0.547,2.364,0.807,3.559,0.807
	c3.1,0,6.073-1.746,7.494-4.731C212.403,455.801,210.645,450.852,206.51,448.884z"/>
<path d="M379.853,265.396c-4.58,0-8.294,3.713-8.294,8.294v17.7c0,4.58,3.713,8.294,8.294,8.294s8.294-3.713,8.294-8.294v-17.7
	C388.147,269.11,384.433,265.396,379.853,265.396z"/>
</svg>