<?xml version="1.0" encoding="utf-8"?><!-- Uploaded to: SVG Repo, www.svgrepo.com, Generator: SVG Repo Mixer Tools -->
<svg width="800px" height="800px" viewBox="0 0 24 24" id="file-new" data-name="multi color" xmlns="http://www.w3.org/2000/svg" class="icon multi-color"><path id="tertiary-fill" d="M4,3H7A0,0,0,0,1,7,3V20a0,0,0,0,1,0,0H4a1,1,0,0,1-1-1V4A1,1,0,0,1,4,3Z" style="fill: #b7b7b7; stroke-width: 2;"></path><path id="primary-stroke" d="M10,20H4a1,1,0,0,1-1-1V4A1,1,0,0,1,4,3h9.59a1,1,0,0,1,.7.29l3.42,3.42a1,1,0,0,1,.29.7V11" style="fill: none; stroke: rgb(0, 0, 0); stroke-linecap: round; stroke-linejoin: round; stroke-width: 2;"></path><path id="secondary-stroke" d="M18,15v6m3-3H15" style="fill: none; stroke: rgb(44, 169, 188); stroke-linecap: round; stroke-linejoin: round; stroke-width: 2;"></path></svg>