<?xml version="1.0" encoding="utf-8"?><!-- Uploaded to: SVG Repo, www.svgrepo.com, Generator: SVG Repo Mixer Tools -->
<svg fill="#000000" width="800px" height="800px" viewBox="0 0 24 24" id="export-2" data-name="Flat Color" xmlns="http://www.w3.org/2000/svg" class="icon flat-color"><path id="secondary" d="M21,2H15a1,1,0,0,0,0,2h3.59l-8.3,8.29a1,1,0,0,0,0,1.42,1,1,0,0,0,1.42,0L20,5.41V9a1,1,0,0,0,2,0V3A1,1,0,0,0,21,2Z" style="fill: rgb(44, 169, 188);"></path><path id="primary" d="M20,22H4a2,2,0,0,1-2-2V4A2,2,0,0,1,4,2h7a1,1,0,0,1,0,2H4V20H20V13a1,1,0,0,1,2,0v7A2,2,0,0,1,20,22Z" style="fill: rgb(0, 0, 0);"></path></svg>